<svg id="Layer_1" viewBox="0 0 24 24" xmlns="http://www.w3.org/2000/svg" data-name="Layer 1"><path d="m11.586 21.134c-1.514-1.707-4.086-5.184-4.086-9.134 0-1.039.18-2.047.472-3h13.567c.202.641.357 1.309.41 2 .027.345.052.923.034 1.386.641 1.057 1.017 2.291 1.017 3.614 0 .317-.029.628-.07.934.681-1.506 1.07-3.173 1.07-4.934 0-6.617-5.383-12-12-12s-12 5.383-12 12 5.383 12 12 12c1.761 0 3.428-.389 4.934-1.07-.306.041-.617.07-.934.07-1.861 0-3.24-.689-4.414-1.866zm.415-18.719c.814.864 2.207 2.506 3.229 4.586h-6.452c1.025-2.082 2.411-3.724 3.223-4.586zm8.646 4.586h-3.223c-.789-1.879-1.879-3.476-2.819-4.644 2.572.696 4.733 2.389 6.041 4.644zm-11.259-4.643c-.94 1.167-2.024 2.767-2.81 4.642h-3.225c1.308-2.253 3.466-3.945 6.035-4.642zm-6.927 6.642h3.442c-.246.956-.403 1.958-.403 3s.157 2.044.403 3h-3.442c-.299-.948-.461-1.955-.461-3s.163-2.052.461-3zm.892 8h3.225c.787 1.875 1.87 3.475 2.81 4.642-2.569-.697-4.728-2.39-6.035-4.642zm17.647-1c0-2.757-2.243-5-5-5s-5 2.243-5 5 2.243 5 5 5c1.017 0 1.962-.309 2.753-.833l3.792 3.792 1.414-1.414-3.792-3.792c.524-.791.833-1.736.833-2.753zm-5 3c-1.654 0-3-1.346-3-3s1.346-3 3-3 3 1.346 3 3-1.346 3-3 3z"/></svg>